<?xml version="1.0" standalone="no"?>
<!DOCTYPE svg PUBLIC "-//W3C//DTD SVG 20010904//EN"
 "http://www.w3.org/TR/2001/REC-SVG-20010904/DTD/svg10.dtd">
<svg version="1.0" xmlns="http://www.w3.org/2000/svg"
 preserveAspectRatio="xMidYMid meet">

<g transform="translate(0.000000,210.000000) scale(0.100000,-0.100000)"
fill="#28ABE1" stroke="none">
<path d="M898 2090 c-229 -37 -425 -136 -588 -300 -141 -140 -234 -305 -283
-499 -30 -123 -30 -359 0 -482 49 -194 142 -359 283 -499 140 -141 305 -234
499 -283 123 -30 359 -30 482 0 194 49 359 142 499 283 141 140 234 305 283
499 30 123 30 359 0 482 -49 194 -142 359 -283 499 -139 140 -306 235 -494
281 -93 23 -309 33 -398 19z m-160 -594 c15 -8 35 -23 45 -34 17 -19 21 -19
65 -5 57 18 132 11 177 -16 33 -19 34 -19 96 0 172 54 294 24 352 -84 20 -39
22 -57 25 -256 l3 -213 34 -34 c60 -60 67 -136 18 -202 -89 -120 -273 -59
-273 92 0 51 27 109 56 120 13 5 15 34 12 212 l-3 206 -28 24 c-32 27 -84 31
-152 11 l-39 -12 3 -215 c3 -209 3 -214 26 -232 58 -45 67 -150 18 -209 -94
-112 -273 -54 -273 88 0 53 11 83 44 113 l26 25 0 208 c0 194 -1 208 -20 227
-20 20 -63 26 -106 14 -11 -3 -29 -21 -39 -40 -10 -20 -27 -40 -37 -45 -16 -9
-18 -26 -18 -190 0 -149 2 -181 15 -185 28 -11 55 -69 55 -120 0 -151 -184
-212 -273 -92 -49 66 -42 142 18 203 l35 34 0 161 0 161 -35 34 c-77 77 -64
190 29 246 37 22 106 25 144 5z"/>
<path d="M610 1422 c-59 -59 -26 -152 54 -152 48 0 65 8 81 41 33 62 2 125
-67 136 -32 5 -41 1 -68 -25z"/>
<path d="M605 805 c-36 -36 -34 -88 5 -127 27 -26 36 -30 68 -25 43 7 82 46
82 83 0 32 -25 80 -45 88 -37 14 -86 6 -110 -19z"/>
<path d="M986 799 c-49 -58 -20 -134 56 -146 32 -5 41 -1 68 25 61 61 26 152
-59 152 -32 0 -44 -6 -65 -31z"/>
<path d="M1382 823 c-18 -7 -42 -57 -42 -87 0 -37 39 -76 82 -83 32 -5 41 -1
68 25 60 61 26 153 -57 151 -21 0 -44 -3 -51 -6z"/>
</g>
</svg>
